<svg xmlns="http://www.w3.org/2000/svg" width="185" height="22" viewBox="0 0 185 22"><g><g><path fill="#212121" d="M31.93 19.7V2.873h5.568v16.825zm24.456 0l-6.625-8.593v8.592h-5.064V2.874h4.656l6.649 8.64v-8.64h5.04v16.825zm21.12-12.434V19.7h-5.57V7.266H67.16V2.874h15.146v4.392zm16.487-.168v2.064h7.872v4.224h-7.872v2.089h8.88v4.224H88.425V2.874h14.233v4.224zm23.448 8.233h-2.089v4.368h-5.568V2.874h8.137c4.56 0 7.176 2.184 7.176 6.024 0 2.448-.936 4.273-2.664 5.329l3.312 5.472h-6.288zm.48-4.224c1.2 0 1.896-.744 1.896-2.04 0-1.249-.696-1.969-1.896-1.969h-2.569v4.009zm14.063 8.592V2.874h5.568v16.825zm30.409-8.425c0 4.993-3.888 8.665-9.24 8.665-5.353 0-9.242-3.648-9.242-8.665 0-4.992 3.889-8.568 9.241-8.568 5.353 0 9.24 3.6 9.24 8.568zm-12.77.024c0 2.305 1.681 4.009 3.601 4.009s3.456-1.704 3.456-4.009c0-2.304-1.536-3.96-3.456-3.96-1.944 0-3.6 1.656-3.6 3.96zm26.785 4.033h-2.088v4.368h-5.569V2.874h8.137c4.56 0 7.176 2.184 7.176 6.024 0 2.448-.936 4.273-2.664 5.329l3.312 5.472h-6.288zm.48-4.224c1.2 0 1.896-.744 1.896-2.04 0-1.249-.696-1.969-1.896-1.969h-2.568v4.009zM.25.844h9.187v9.187H.25zm21 0v9.187h-9.188V.844zm-9.188 11.812h9.188v9.188h-9.188zm-11.812 0h9.187v9.188H.25z"/></g></g></svg>