<svg xmlns="http://www.w3.org/2000/svg" width="23" height="23" viewBox="0 0 23 23"><g><g><path d="M9.55.5c1.22 0 2.383.242 3.493.726a8.885 8.885 0 0 1 2.86 1.9 8.963 8.963 0 0 1 1.921 2.882 8.635 8.635 0 0 1 .727 3.492 8.782 8.782 0 0 1-.516 3 8.972 8.972 0 0 1-1.453 2.625l5.672 5.672a.955.955 0 0 1 .281.703.955.955 0 0 1-.28.703.918.918 0 0 1-.704.305.99.99 0 0 1-.727-.305l-5.672-5.672a9.042 9.042 0 0 1-2.601 1.453 8.767 8.767 0 0 1-3 .516 9.05 9.05 0 0 1-3.516-.703 9.193 9.193 0 0 1-2.86-1.922 9.504 9.504 0 0 1-1.921-2.883A8.885 8.885 0 0 1 .55 9.5c0-1.219.234-2.383.703-3.492a9.5 9.5 0 0 1 1.922-2.883 8.88 8.88 0 0 1 2.859-1.899A8.808 8.808 0 0 1 9.551.5zm0 1.992c-.952 0-1.859.188-2.718.563a7.1 7.1 0 0 0-2.25 1.5A6.849 6.849 0 0 0 3.106 6.78 6.723 6.723 0 0 0 2.543 9.5c0 .953.187 1.86.563 2.719.359.86.851 1.602 1.476 2.226a7.09 7.09 0 0 0 2.25 1.5c.86.375 1.766.563 2.719.563a6.84 6.84 0 0 0 2.719-.562 7.164 7.164 0 0 0 2.226-1.5 7.158 7.158 0 0 0 1.5-2.227c.36-.86.54-1.766.54-2.72 0-.952-.18-1.859-.54-2.718a7.17 7.17 0 0 0-1.5-2.226 7.175 7.175 0 0 0-2.226-1.5 6.835 6.835 0 0 0-2.72-.563z"/></g></g></svg>